<svg width="327" height="58" viewBox="0 0 327 58" fill="none" xmlns="http://www.w3.org/2000/svg">
<rect width="327" height="58" rx="8" fill="url(#paint0_linear_1_753)"/>
<path d="M106.237 29.272C106.866 29.3893 107.384 29.704 107.789 30.216C108.194 30.728 108.397 31.3147 108.397 31.976C108.397 32.5733 108.248 33.1013 107.949 33.56C107.661 34.008 107.24 34.36 106.685 34.616C106.13 34.872 105.474 35 104.717 35H99.9009V23.832H104.509C105.266 23.832 105.917 23.9547 106.461 24.2C107.016 24.4453 107.432 24.7867 107.709 25.224C107.997 25.6613 108.141 26.1573 108.141 26.712C108.141 27.3627 107.965 27.9067 107.613 28.344C107.272 28.7813 106.813 29.0907 106.237 29.272ZM102.141 28.44H104.189C104.722 28.44 105.133 28.3227 105.421 28.088C105.709 27.8427 105.853 27.496 105.853 27.048C105.853 26.6 105.709 26.2533 105.421 26.008C105.133 25.7627 104.722 25.64 104.189 25.64H102.141V28.44ZM104.397 33.176C104.941 33.176 105.362 33.048 105.661 32.792C105.97 32.536 106.125 32.1733 106.125 31.704C106.125 31.224 105.965 30.8507 105.645 30.584C105.325 30.3067 104.893 30.168 104.349 30.168H102.141V33.176H104.397ZM118.55 26.136V35H116.294V33.88C116.006 34.264 115.627 34.568 115.158 34.792C114.699 35.0053 114.198 35.112 113.654 35.112C112.961 35.112 112.347 34.968 111.814 34.68C111.281 34.3813 110.859 33.9493 110.55 33.384C110.251 32.808 110.102 32.1253 110.102 31.336V26.136H112.342V31.016C112.342 31.72 112.518 32.264 112.87 32.648C113.222 33.0213 113.702 33.208 114.31 33.208C114.929 33.208 115.414 33.0213 115.766 32.648C116.118 32.264 116.294 31.72 116.294 31.016V26.136H118.55ZM123.368 27.976V32.264C123.368 32.5627 123.438 32.7813 123.576 32.92C123.726 33.048 123.971 33.112 124.312 33.112H125.352V35H123.944C122.056 35 121.112 34.0827 121.112 32.248V27.976H120.056V26.136H121.112V23.944H123.368V26.136H125.352V27.976H123.368ZM129.571 27.976V32.264C129.571 32.5627 129.641 32.7813 129.779 32.92C129.929 33.048 130.174 33.112 130.515 33.112H131.555V35H130.147C128.259 35 127.315 34.0827 127.315 32.248V27.976H126.259V26.136H127.315V23.944H129.571V26.136H131.555V27.976H129.571ZM137.103 35.144C136.249 35.144 135.481 34.9573 134.799 34.584C134.116 34.2 133.577 33.6613 133.183 32.968C132.799 32.2747 132.607 31.4747 132.607 30.568C132.607 29.6613 132.804 28.8613 133.199 28.168C133.604 27.4747 134.153 26.9413 134.847 26.568C135.54 26.184 136.313 25.992 137.167 25.992C138.02 25.992 138.793 26.184 139.487 26.568C140.18 26.9413 140.724 27.4747 141.119 28.168C141.524 28.8613 141.727 29.6613 141.727 30.568C141.727 31.4747 141.519 32.2747 141.102 32.968C140.697 33.6613 140.143 34.2 139.439 34.584C138.745 34.9573 137.967 35.144 137.103 35.144ZM137.103 33.192C137.508 33.192 137.887 33.096 138.239 32.904C138.601 32.7013 138.889 32.4027 139.103 32.008C139.316 31.6133 139.423 31.1333 139.423 30.568C139.423 29.7253 139.199 29.08 138.751 28.632C138.313 28.1733 137.775 27.944 137.135 27.944C136.495 27.944 135.956 28.1733 135.519 28.632C135.092 29.08 134.879 29.7253 134.879 30.568C134.879 31.4107 135.087 32.0613 135.503 32.52C135.929 32.968 136.463 33.192 137.103 33.192ZM148.282 26.008C149.338 26.008 150.191 26.344 150.842 27.016C151.492 27.6773 151.818 28.6053 151.818 29.8V35H149.578V30.104C149.578 29.4 149.402 28.8613 149.05 28.488C148.698 28.104 148.218 27.912 147.61 27.912C146.991 27.912 146.5 28.104 146.138 28.488C145.786 28.8613 145.61 29.4 145.61 30.104V35H143.37V26.136H145.61V27.24C145.908 26.856 146.287 26.5573 146.746 26.344C147.215 26.12 147.727 26.008 148.282 26.008ZM165.536 27.192C165.28 26.7227 164.928 26.3653 164.48 26.12C164.032 25.8747 163.51 25.752 162.912 25.752C162.251 25.752 161.664 25.9013 161.152 26.2C160.64 26.4987 160.24 26.9253 159.952 27.48C159.664 28.0347 159.52 28.6747 159.52 29.4C159.52 30.1467 159.664 30.7973 159.952 31.352C160.251 31.9067 160.662 32.3333 161.184 32.632C161.707 32.9307 162.315 33.08 163.008 33.08C163.862 33.08 164.56 32.856 165.104 32.408C165.648 31.9493 166.006 31.3147 166.176 30.504H162.336V28.792H168.384V30.744C168.235 31.5227 167.915 32.2427 167.424 32.904C166.934 33.5653 166.299 34.0987 165.52 34.504C164.752 34.8987 163.888 35.096 162.928 35.096C161.851 35.096 160.875 34.856 160 34.376C159.136 33.8853 158.454 33.208 157.952 32.344C157.462 31.48 157.216 30.4987 157.216 29.4C157.216 28.3013 157.462 27.32 157.952 26.456C158.454 25.5813 159.136 24.904 160 24.424C160.875 23.9333 161.846 23.688 162.912 23.688C164.171 23.688 165.264 23.9973 166.192 24.616C167.12 25.224 167.76 26.0827 168.112 27.192H165.536ZM172.282 27.512C172.57 27.0427 172.943 26.6747 173.402 26.408C173.871 26.1413 174.404 26.008 175.002 26.008V28.36H174.41C173.706 28.36 173.172 28.5253 172.81 28.856C172.458 29.1867 172.282 29.7627 172.282 30.584V35H170.042V26.136H172.282V27.512ZM175.934 30.536C175.934 29.64 176.11 28.8453 176.462 28.152C176.825 27.4587 177.31 26.9253 177.918 26.552C178.537 26.1787 179.225 25.992 179.982 25.992C180.644 25.992 181.22 26.1253 181.71 26.392C182.212 26.6587 182.612 26.9947 182.91 27.4V26.136H185.166V35H182.91V33.704C182.622 34.12 182.222 34.4667 181.71 34.744C181.209 35.0107 180.628 35.144 179.966 35.144C179.22 35.144 178.537 34.952 177.918 34.568C177.31 34.184 176.825 33.6453 176.462 32.952C176.11 32.248 175.934 31.4427 175.934 30.536ZM182.91 30.568C182.91 30.024 182.804 29.56 182.59 29.176C182.377 28.7813 182.089 28.4827 181.726 28.28C181.364 28.0667 180.974 27.96 180.558 27.96C180.142 27.96 179.758 28.0613 179.406 28.264C179.054 28.4667 178.766 28.7653 178.542 29.16C178.329 29.544 178.222 30.0027 178.222 30.536C178.222 31.0693 178.329 31.5387 178.542 31.944C178.766 32.3387 179.054 32.6427 179.406 32.856C179.769 33.0693 180.153 33.176 180.558 33.176C180.974 33.176 181.364 33.0747 181.726 32.872C182.089 32.6587 182.377 32.36 182.59 31.976C182.804 31.5813 182.91 31.112 182.91 30.568ZM186.778 30.536C186.778 29.64 186.954 28.8453 187.306 28.152C187.669 27.4587 188.159 26.9253 188.778 26.552C189.397 26.1787 190.085 25.992 190.842 25.992C191.418 25.992 191.967 26.12 192.49 26.376C193.013 26.6213 193.429 26.952 193.738 27.368V23.16H196.01V35H193.738V33.688C193.461 34.1253 193.071 34.4773 192.57 34.744C192.069 35.0107 191.487 35.144 190.826 35.144C190.079 35.144 189.397 34.952 188.778 34.568C188.159 34.184 187.669 33.6453 187.306 32.952C186.954 32.248 186.778 31.4427 186.778 30.536ZM193.754 30.568C193.754 30.024 193.647 29.56 193.434 29.176C193.221 28.7813 192.933 28.4827 192.57 28.28C192.207 28.0667 191.818 27.96 191.402 27.96C190.986 27.96 190.602 28.0613 190.25 28.264C189.898 28.4667 189.61 28.7653 189.386 29.16C189.173 29.544 189.066 30.0027 189.066 30.536C189.066 31.0693 189.173 31.5387 189.386 31.944C189.61 32.3387 189.898 32.6427 190.25 32.856C190.613 33.0693 190.997 33.176 191.402 33.176C191.818 33.176 192.207 33.0747 192.57 32.872C192.933 32.6587 193.221 32.36 193.434 31.976C193.647 31.5813 193.754 31.112 193.754 30.568ZM199.334 25.08C198.939 25.08 198.608 24.9573 198.342 24.712C198.086 24.456 197.958 24.1413 197.958 23.768C197.958 23.3947 198.086 23.0853 198.342 22.84C198.608 22.584 198.939 22.456 199.334 22.456C199.728 22.456 200.054 22.584 200.31 22.84C200.576 23.0853 200.71 23.3947 200.71 23.768C200.71 24.1413 200.576 24.456 200.31 24.712C200.054 24.9573 199.728 25.08 199.334 25.08ZM200.438 26.136V35H198.198V26.136H200.438ZM210.891 30.376C210.891 30.696 210.87 30.984 210.827 31.24H204.347C204.4 31.88 204.624 32.3813 205.019 32.744C205.414 33.1067 205.899 33.288 206.475 33.288C207.307 33.288 207.899 32.9307 208.251 32.216H210.667C210.411 33.0693 209.92 33.7733 209.195 34.328C208.47 34.872 207.579 35.144 206.523 35.144C205.67 35.144 204.902 34.9573 204.219 34.584C203.547 34.2 203.019 33.6613 202.635 32.968C202.262 32.2747 202.075 31.4747 202.075 30.568C202.075 29.6507 202.262 28.8453 202.635 28.152C203.008 27.4587 203.531 26.9253 204.203 26.552C204.875 26.1787 205.648 25.992 206.523 25.992C207.366 25.992 208.118 26.1733 208.779 26.536C209.451 26.8987 209.968 27.416 210.331 28.088C210.704 28.7493 210.891 29.512 210.891 30.376ZM208.571 29.736C208.56 29.16 208.352 28.7013 207.947 28.36C207.542 28.008 207.046 27.832 206.459 27.832C205.904 27.832 205.435 28.0027 205.051 28.344C204.678 28.6747 204.448 29.1387 204.363 29.736H208.571ZM217.438 26.008C218.494 26.008 219.347 26.344 219.998 27.016C220.649 27.6773 220.974 28.6053 220.974 29.8V35H218.734V30.104C218.734 29.4 218.558 28.8613 218.206 28.488C217.854 28.104 217.374 27.912 216.766 27.912C216.147 27.912 215.657 28.104 215.294 28.488C214.942 28.8613 214.766 29.4 214.766 30.104V35H212.526V26.136H214.766V27.24C215.065 26.856 215.443 26.5573 215.902 26.344C216.371 26.12 216.883 26.008 217.438 26.008ZM225.712 27.976V32.264C225.712 32.5627 225.781 32.7813 225.92 32.92C226.069 33.048 226.315 33.112 226.656 33.112H227.696V35H226.288C224.4 35 223.456 34.0827 223.456 32.248V27.976H222.4V26.136H223.456V23.944H225.712V26.136H227.696V27.976H225.712Z" fill="#161622"/>
<defs>
<linearGradient id="paint0_linear_1_753" x1="0" y1="29" x2="327" y2="29" gradientUnits="userSpaceOnUse">
<stop stop-color="#FF8C00"/>
<stop offset="1" stop-color="#FFA300"/>
</linearGradient>
</defs>
</svg>
