<svg width="329" height="284" viewBox="0 0 329 284" fill="none" xmlns="http://www.w3.org/2000/svg">
<path d="M211.558 5.38446L204.031 11.3646L195.673 5.98006L203.199 -6.45833e-05L211.558 5.38446Z" fill="#FBCFBC"/>
<path d="M104.484 280.785L92.1114 279.156L98.8827 272.726L104.484 280.785Z" fill="#FBCFBC"/>
<path d="M4.00102 114.454L0.699047 108.479L8.70091 108.98L4.00102 114.454Z" fill="#E1E2EB"/>
<path d="M316.793 76.9098C316.267 77.0395 315.698 77.0546 315.16 76.9532C314.622 76.8518 314.137 76.6384 313.768 76.3401C313.399 76.0418 313.163 75.6719 313.087 75.2772C313.012 74.8825 313.103 74.4808 313.347 74.1228C313.591 73.7648 313.978 73.4666 314.459 73.2659C314.94 73.0653 315.493 72.9712 316.049 72.9955C316.604 73.0198 317.137 73.1615 317.581 73.4026C318.024 73.6436 318.357 73.9734 318.538 74.35C318.781 74.855 318.734 75.4084 318.407 75.8885C318.08 76.3685 317.499 76.7359 316.793 76.9098V76.9098Z" fill="#C6B4FA"/>
<path d="M13.1543 265.938C12.6279 266.068 12.0595 266.083 11.5211 265.981C10.9827 265.88 10.4984 265.667 10.1295 265.368C9.76058 265.07 9.5236 264.7 9.44852 264.305C9.37344 263.911 9.46364 263.509 9.7077 263.151C9.95177 262.793 10.3387 262.495 10.8197 262.294C11.3006 262.094 11.8539 261.999 12.4097 262.024C12.9654 262.048 13.4985 262.19 13.9417 262.431C14.3849 262.672 14.7182 263.002 14.8994 263.378C15.1425 263.883 15.0952 264.437 14.7679 264.917C14.4406 265.397 13.8602 265.764 13.1543 265.938V265.938Z" fill="#C6B4FA"/>
<path d="M323.565 166.259L320.263 160.285L328.265 160.785L323.565 166.259Z" fill="#E1E2EB"/>
</svg>
