<?xml version="1.0" encoding="utf-8"?>
<!-- Generator: Adobe Illustrator 22.0.0, SVG Export Plug-In . SVG Version: 6.00 Build 0)  -->
<svg version="1.1" id="Layer_1" xmlns="http://www.w3.org/2000/svg" xmlns:xlink="http://www.w3.org/1999/xlink" x="0px" y="0px"
	 viewBox="0 0 864 250" style="enable-background:new 0 0 864 250;" xml:space="preserve">
<style type="text/css">
	.st0{fill:url(#SVGID_1_);}
	.st1{fill:#453E6B;}
	.st2{fill:#FFFFFF;}
</style>
<g>
	
		<linearGradient id="SVGID_1_" gradientUnits="userSpaceOnUse" x1="31.8492" y1="44.0271" x2="216.1508" y2="209.9729" gradientTransform="matrix(1 0 0 -1 0 252)">
		<stop  offset="0" style="stop-color:#492CDD"/>
		<stop  offset="1" style="stop-color:#AD38E2"/>
	</linearGradient>
	<circle class="st0" cx="124" cy="125" r="124"/>
</g>
<g>
	<path class="st1" d="M359.7,165.6h-53.8l-12.3,24.1h-29.1l66.3-130.1h7.6l61.5,130.1h-28.8L359.7,165.6z M347.5,139.6l-13.6-29
		l-14.7,29H347.5z"/>
	<path class="st1" d="M446.8,134.6c-4.3-1.1-12.3-3.2-19.7-8.2c-10.4-6.9-16.2-16.9-16.7-29.3c-0.6-10.4,2.8-19.5,9.5-26.5
		c9.7-10,23.6-12.8,30.3-12.8c18.9,0,29.5,6.9,39,13l4.3,2.8l-13.6,22.1l-4.6-3c-8.4-5.4-13.7-8.9-25.1-8.9c-1.7,0-8.2,1.3-11.5,4.8
		c-1.1,1.1-2.4,3.2-2.2,7.4c0.2,6.7,4.8,10.4,16.7,13.4c1.5,0.4,2.6,0.7,3.7,1.1c12.4,4.3,22.1,10,28.8,17.3
		c6.7,7.4,10.2,16.2,10.2,25.4c0,9.1-3.9,18.6-10.4,25.8c-7.6,8.5-18.2,13.4-29.9,13.4c-5.8,0-13.6-0.4-22.8-3.2
		c-11.7-3.7-22.1-10.2-31-19.7l18.9-17.8c13.7,14.7,29.1,14.7,34.9,14.7c10.8,0,14.3-9.8,14.3-13.2c0-7.1-8-13.6-21.5-18.2l-0.6-0.2
		L446.8,134.6z"/>
	<path class="st1" d="M608,59.6v26h-36v104.2h-26V85.5h-36.2v-26H608z"/>
	<path class="st1" d="M690.8,189.7l-24.3-52.2h-13v52h-26V59.4h49c21.5,0,39,17.6,39,39.2c0,15.8-9.3,29.3-22.8,35.5l25.8,55.7
		H690.8z M653.5,85.4v26.2h23c7.2,0,13-5.8,13-13c0-7.2-5.8-13.2-13-13.2H653.5z"/>
	<path class="st1" d="M823.9,165.6h-53.8l-12.3,24.1h-29.1l66.3-130.1h7.6L864,189.7h-28.8L823.9,165.6z M811.6,139.6l-13.6-29
		l-14.7,29H811.6z"/>
</g>
<g>
	<path class="st2" d="M122.5,56C122.5,56,122.5,56,122.5,56c-21,44.3-42,88.7-63,133c9,0,18,0,27,0c17-34.3,34-68.7,51-103L122.5,56
		z"/>
</g>
<path class="st2" d="M150.5,111c-8.7,18-17.3,36-26,54l-0.5,1h0.5c8.3,0,16.7,0,25,0c3.3,7.7,6.7,15.3,10,23c9.7,0,19.3,0,29,0
	C175.8,163,163.2,137,150.5,111z"/>
</svg>
